P1
#PBM
16 16
0 0 0 0 0 1 1 1 1 1 1 0 0 0 0 0
0 0 0 1 1 1 1 1 1 0 0 1 1 0 0 0
0 0 1 0 0 1 1 1 1 0 0 0 0 1 0 0
0 1 0 0 1 1 1 1 1 1 0 0 0 0 1 0
0 1 0 1 1 0 0 0 0 1 1 0 0 0 1 0
1 1 1 1 0 0 0 0 0 0 1 1 1 1 1 1
1 1 1 1 0 0 0 0 0 0 1 1 0 0 1 1
1 0 1 1 0 0 0 0 0 0 1 0 0 0 0 1
1 0 0 1 1 0 0 0 0 1 1 0 0 0 0 1
1 0 0 1 1 1 1 1 1 1 1 1 0 0 1 1
1 0 1 1 1 1 1 1 1 1 1 1 1 1 1 1
0 1 1 1 0 0 1 0 0 1 0 0 1 1 1 0
0 0 1 0 0 0 1 0 0 1 0 0 0 1 0 0
0 0 1 0 0 0 0 0 0 0 0 0 0 1 0 0
0 0 0 1 0 0 0 0 0 0 0 0 1 0 0 0
0 0 0 0 1 1 1 1 1 1 1 1 0 0 0 0
